<svg xmlns="http://www.w3.org/2000/svg" xmlns:xlink="http://www.w3.org/1999/xlink" width="183.792" height="16.771" viewBox="0 0 183.792 16.771">
  <defs>
    <clipPath id="clip-path">
      <rect id="Rectangle_1328" data-name="Rectangle 1328" width="48.292" height="16.771" transform="translate(64.015 1.615)" fill="#fff"/>
    </clipPath>
  </defs>
  <g id="Group_1164" data-name="Group 1164" transform="translate(-597 11141)">
    <g id="logos" transform="translate(594.951 -11142.614)">
      <g id="Group_1161" data-name="Group 1161" clip-path="url(#clip-path)">
        <path id="Path_2303" data-name="Path 2303" d="M85.844,8.891h2.009c1.056,0,1.619-.551,1.619-1.3A1.089,1.089,0,0,0,88.439,6.45V6.4a1,1,0,0,0,.849-1.01c0-.7-.523-1.205-1.561-1.205H85.844Zm.994-.813V6.829h.833a.683.683,0,0,1,.774.664c0,.354-.241.586-.8.586Zm0-1.922V4.992h.756c.441,0,.691.227.691.567,0,.372-.3.6-.71.6Zm4.268,2.8A1.083,1.083,0,0,0,92.137,8.4h.028v.489h.928V6.512c0-.84-.712-1.194-1.5-1.194A1.4,1.4,0,0,0,90.06,6.365l.9.073a.59.59,0,0,1,.627-.406c.333,0,.524.168.524.457V6.5c0,.227-.241.257-.854.317-.7.064-1.325.3-1.325,1.086A1.034,1.034,0,0,0,91.106,8.957Zm.28-.675c-.3,0-.517-.14-.517-.409s.227-.411.572-.459a2.352,2.352,0,0,0,.68-.158V7.63A.677.677,0,0,1,91.387,8.282Zm3.443-1.43a.651.651,0,0,1,.668-.721.605.605,0,0,1,.627.689V8.891H97.1V6.645a1.189,1.189,0,0,0-1.217-1.327,1.065,1.065,0,0,0-1.061.668h-.042V5.364h-.932V8.891h.978Zm3.044,2.039h.978V7.77l.264-.3.962,1.421h1.146l-1.375-2,1.308-1.527h-1.123L98.9,6.7h-.053V4.188h-.978Z" fill="#26536b"/>
        <path id="Path_2304" data-name="Path 2304" d="M85.664,12.08H87.1v3.883h.983V12.08h1.44v-.82H85.664Zm4.114,3.883h.978v-2a.712.712,0,0,1,.749-.733,1.646,1.646,0,0,1,.413.053V12.42a1.466,1.466,0,0,0-.308-.034.857.857,0,0,0-.847.666h-.037v-.615h-.948Zm3.55.067a1.083,1.083,0,0,0,1.031-.556h.028v.489h.928V13.584c0-.84-.712-1.194-1.5-1.194a1.4,1.4,0,0,0-1.536,1.047l.9.073a.59.59,0,0,1,.627-.406c.333,0,.524.168.524.457v.014c0,.227-.241.257-.854.317-.7.064-1.325.3-1.325,1.086A1.034,1.034,0,0,0,93.328,16.029Zm.28-.675c-.3,0-.517-.14-.517-.409s.227-.411.572-.459a2.349,2.349,0,0,0,.68-.158V14.7A.677.677,0,0,1,93.608,15.354Zm3.443-1.431a.651.651,0,0,1,.668-.721.605.605,0,0,1,.627.689v2.071h.978V13.717a1.189,1.189,0,0,0-1.217-1.327,1.065,1.065,0,0,0-1.061.668h-.041v-.622h-.932v3.527h.978Zm5.979-.482c-.087-.65-.611-1.052-1.5-1.052s-1.5.418-1.494,1.1c0,.528.33.87,1.019,1.008l.611.122c.308.062.448.174.452.351,0,.209-.232.358-.574.358a.574.574,0,0,1-.641-.436l-.962.051c.092.675.666,1.091,1.6,1.091.914,0,1.568-.466,1.57-1.162,0-.51-.335-.815-1.019-.955l-.638-.129c-.329-.071-.451-.184-.448-.354,0-.211.236-.349.539-.349a.553.553,0,0,1,.591.413Zm2.593-1.006h-.7V12.2c0-.239.1-.379.383-.379a1.091,1.091,0,0,1,.315.051l.172-.735a2.578,2.578,0,0,0-.691-.1,1.06,1.06,0,0,0-1.158,1.141v.255h-.5v.735h.5v2.792h.979V13.171h.7Zm2.079,3.6a1.47,1.47,0,0,0,1.6-1.079l-.905-.06a.664.664,0,0,1-.677.409.767.767,0,0,1-.8-.85v0h2.4v-.269a1.6,1.6,0,0,0-1.657-1.791,1.671,1.671,0,0,0-1.711,1.825A1.652,1.652,0,0,0,107.7,16.032Zm-.783-2.188a.744.744,0,0,1,.76-.723.7.7,0,0,1,.72.723Zm3.04,2.119h.978v-2a.712.712,0,0,1,.748-.733,1.651,1.651,0,0,1,.414.053V12.42a1.473,1.473,0,0,0-.308-.034.856.856,0,0,0-.847.666h-.037v-.615h-.948Z" fill="#26536b"/>
        <path id="Path_2305" data-name="Path 2305" d="M73.109,15.072H77.12v2.206l4.475-4.412L77.12,8.453V10.66H69.1v2.206L64.622,8.453,69.1,4.041V6.247h4.012" fill="none" stroke="#26536b" stroke-linecap="round" stroke-linejoin="round" stroke-width="1.212"/>
      </g>
      <path id="Path_2306" data-name="Path 2306" d="M142.466,17.781v.041h.038a.043.043,0,0,0,.021-.005.016.016,0,0,0,.007-.016.016.016,0,0,0-.007-.015.038.038,0,0,0-.021-.005h-.038Zm.039-.029a.073.073,0,0,1,.046.013.049.049,0,0,1,.016.036.043.043,0,0,1-.013.032.062.062,0,0,1-.037.015l.051.059h-.039l-.047-.058h-.016v.058h-.033v-.156h.072Zm-.011.209a.124.124,0,0,0,.051-.01.138.138,0,0,0,.041-.028.135.135,0,0,0,.028-.041.138.138,0,0,0,0-.1.136.136,0,0,0-.028-.041.138.138,0,0,0-.041-.028.13.13,0,0,0-.051-.01.136.136,0,0,0-.051.01.126.126,0,0,0-.042.028.134.134,0,0,0-.028.144.136.136,0,0,0,.028.041.129.129,0,0,0,.042.028.128.128,0,0,0,.051.01Zm0-.3a.173.173,0,0,1,.121.049.166.166,0,0,1,.037.053.172.172,0,0,1,0,.13.187.187,0,0,1-.037.053.184.184,0,0,1-.054.036.174.174,0,0,1-.134,0,.181.181,0,0,1-.055-.036.192.192,0,0,1-.036-.055.172.172,0,0,1,0-.13.167.167,0,0,1,.037-.053.159.159,0,0,1,.054-.036.175.175,0,0,1,.068-.013Zm-15.743-.6a.511.511,0,1,1,.512.54A.506.506,0,0,1,126.751,17.064Zm1.366,0V16.22h-.367v.206a.639.639,0,0,0-.533-.247.887.887,0,0,0,0,1.772.64.64,0,0,0,.533-.247v.2h.367v-.844Zm12.4,0a.511.511,0,1,1,.512.54A.506.506,0,0,1,140.516,17.064Zm1.367,0V15.542h-.368v.883a.637.637,0,0,0-.532-.247.887.887,0,0,0,0,1.772.638.638,0,0,0,.532-.247v.2h.368Zm-9.211-.558a.419.419,0,0,1,.427.409h-.876a.434.434,0,0,1,.449-.409Zm.007-.329a.887.887,0,0,0,.025,1.772,1.022,1.022,0,0,0,.691-.236l-.179-.272a.807.807,0,0,1-.491.177.469.469,0,0,1-.505-.413h1.253c0-.046.007-.092.007-.141a.809.809,0,0,0-.8-.886Zm4.43.886a.511.511,0,1,1,.512.54.507.507,0,0,1-.512-.54Zm1.366,0V16.22h-.366v.206a.64.64,0,0,0-.533-.247.887.887,0,0,0,0,1.772.641.641,0,0,0,.533-.247v.2h.366v-.844Zm-3.438,0a.852.852,0,0,0,.9.886.883.883,0,0,0,.607-.2l-.176-.3a.744.744,0,0,1-.442.152.541.541,0,0,1,0-1.081.746.746,0,0,1,.442.152l.176-.3a.885.885,0,0,0-.607-.2A.852.852,0,0,0,135.037,17.063Zm4.731-.886a.5.5,0,0,0-.445.247v-.2h-.364v1.687h.367v-.946c0-.279.12-.435.36-.435a.6.6,0,0,1,.23.043l.113-.346a.779.779,0,0,0-.262-.046Zm-9.836.177a1.264,1.264,0,0,0-.689-.177c-.427,0-.7.2-.7.54,0,.275.205.445.582.5l.173.025c.2.028.3.081.3.177,0,.131-.133.2-.384.2a.9.9,0,0,1-.561-.177l-.173.286a1.217,1.217,0,0,0,.731.219c.487,0,.77-.229.77-.551,0-.3-.223-.452-.59-.5l-.173-.025c-.159-.021-.286-.052-.286-.166s.12-.2.321-.2a1.085,1.085,0,0,1,.526.145l.159-.3Zm4.734-.176a.5.5,0,0,0-.444.247V16.22h-.364v1.687h.367v-.946c0-.279.12-.435.36-.435a.59.59,0,0,1,.229.043l.114-.346a.787.787,0,0,0-.262-.046Zm-3.131.042h-.6v-.512h-.371v.512h-.342v.335h.342v.77c0,.391.152.625.586.625a.862.862,0,0,0,.459-.13L131.5,17.5a.676.676,0,0,1-.325.1c-.183,0-.243-.113-.243-.282v-.763h.6Zm-5.486,1.688V16.848a.628.628,0,0,0-.664-.671.652.652,0,0,0-.593.3.62.62,0,0,0-.558-.3.558.558,0,0,0-.494.251V16.22h-.367v1.687h.37v-.936a.4.4,0,0,1,.413-.448c.244,0,.367.159.367.445v.939h.371v-.936a.4.4,0,0,1,.413-.449c.25,0,.37.159.37.445v.939Z" fill="#231f20" fill-rule="evenodd"/>
      <path id="Path_2307" data-name="Path 2307" d="M142.675,12.294v-.247h-.064l-.075.169-.074-.169H142.4v.247h.046v-.186l.069.16h.047l.07-.161v.186Zm-.408,0v-.2h.083v-.042h-.211v.042h.083v.2Z" fill="#f79410" fill-rule="evenodd"/>
      <path id="Path_2308" data-name="Path 2308" d="M135.371,13.353H129.81V3.359h5.561Z" fill="#ff5f00" fill-rule="evenodd"/>
      <path id="Path_2309" data-name="Path 2309" d="M130.163,8.356a6.345,6.345,0,0,1,2.427-5,6.356,6.356,0,1,0,0,9.994A6.345,6.345,0,0,1,130.163,8.356Z" fill="#eb001b" fill-rule="evenodd"/>
      <path id="Path_2310" data-name="Path 2310" d="M142.874,8.356a6.355,6.355,0,0,1-10.283,5,6.357,6.357,0,0,0,0-9.994,6.355,6.355,0,0,1,10.283,5" fill="#f79410" fill-rule="evenodd"/>
      <path id="Path_2311" data-name="Path 2311" d="M170.889,8.2c-.018,1.393,1.241,2.17,2.19,2.633.974.474,1.3.778,1.3,1.2-.007.649-.777.936-1.5.947a5.227,5.227,0,0,1-2.569-.611l-.453,2.119a7.529,7.529,0,0,0,2.782.513c2.628,0,4.347-1.3,4.356-3.309.011-2.553-3.53-2.694-3.506-3.835.008-.346.338-.715,1.062-.809a4.711,4.711,0,0,1,2.467.432l.44-2.05A6.712,6.712,0,0,0,175.116,5C172.643,5,170.9,6.315,170.889,8.2Zm10.795-3.02a1.141,1.141,0,0,0-1.065.71l-3.754,8.963h2.626l.523-1.444h3.209l.3,1.444h2.315l-2.02-9.673Zm.367,2.613.758,3.632h-2.075ZM167.705,5.177l-2.07,9.673h2.5l2.069-9.673Zm-3.7,0-2.6,6.584-1.054-5.6a1.167,1.167,0,0,0-1.154-.986h-4.258l-.059.281a10.4,10.4,0,0,1,2.468.823,1.058,1.058,0,0,1,.6.85l2,7.719h2.645l4.054-9.673Z" fill="#1a1f71" fill-rule="evenodd"/>
    </g>
    <g id="Group_1163" data-name="Group 1163" transform="translate(0 17)">
      <path id="Path_2322" data-name="Path 2322" d="M646.317,1822.3a.381.381,0,0,1-.506-.154l-.025-.055-1.044-2.292a.2.2,0,0,1-.018-.08.191.191,0,0,1,.306-.153l1.232.877a.568.568,0,0,0,.509.058l5.794-2.579a6.131,6.131,0,0,0-4.685-2.024c-3.168,0-5.735,2.14-5.735,4.78a4.5,4.5,0,0,0,1.982,3.613.382.382,0,0,1,.161.312.452.452,0,0,1-.02.121l-.258.964a.564.564,0,0,0-.031.14.191.191,0,0,0,.191.191.214.214,0,0,0,.11-.036l1.256-.724a.6.6,0,0,1,.3-.088.573.573,0,0,1,.168.025,6.8,6.8,0,0,0,1.872.262c3.167,0,5.736-2.14,5.736-4.779a4.139,4.139,0,0,0-.653-2.215l-6.6,3.813Zm0,0" transform="translate(-45.145 -12970.574)" fill="#0cc902"/>
      <g id="Group_1162" data-name="Group 1162" transform="translate(0.856 13.742)">
        <path id="Path_2323" data-name="Path 2323" d="M1245.974,1965.167l-.115.408c-.1.341-.181.642-.255.939-.094-.439-.223-.929-.339-1.361l-.772-2.912-.013-.052h-.507l-.863,2.982c-.155.5-.292.96-.388,1.358-.074-.315-.163-.666-.257-1.035l-.837-3.254-.014-.052h-.584l1.4,5.313.014.052h.5l.9-3.044c.158-.519.276-.927.362-1.283.077.377.183.79.317,1.28l.78,3,.013.052h.506l1.581-5.276.027-.089h-.587Zm0,0" transform="translate(-629.651 -13127.987)" fill="#020202"/>
        <path id="Path_2324" data-name="Path 2324" d="M1420.5,2002.433a1.153,1.153,0,0,1,1.116-1.085.914.914,0,0,1,.681.256,1.274,1.274,0,0,1,.312.829Zm1.162-1.594c-1.05,0-1.756.841-1.756,2.094a1.785,1.785,0,0,0,1.817,1.947,2.5,2.5,0,0,0,1.206-.25l.083-.047-.245-.426-.058.026a2.065,2.065,0,0,1-.939.18c-.8,0-1.267-.524-1.3-1.437h2.691l.018-.079a1.071,1.071,0,0,0,.017-.244,2.24,2.24,0,0,0-.279-1.081,1.363,1.363,0,0,0-1.254-.683" transform="translate(-802.043 -13165.237)" fill="#020202"/>
        <path id="Path_2325" data-name="Path 2325" d="M1530.256,1964.666h0a2.745,2.745,0,0,1-1.089.214,1.971,1.971,0,0,1-2.082-2.2,2.04,2.04,0,0,1,2.144-2.289,2.388,2.388,0,0,1,.994.2l.058.027.262-.455-.079-.042a2.816,2.816,0,0,0-3.964,2.555,2.472,2.472,0,0,0,2.545,2.729,3.444,3.444,0,0,0,1.439-.271l.086-.043-.256-.442Zm0,0" transform="translate(-904.768 -13125.752)" fill="#020202"/>
        <path id="Path_2326" data-name="Path 2326" d="M1657.335,1961.356a1.462,1.462,0,0,0-.793.228,1.37,1.37,0,0,0-.362.308v-2.022h-.569v5.449h.569v-2.345a.991.991,0,0,1,.041-.335,1.119,1.119,0,0,1,1.016-.759c.792,0,.91.728.91,1.163v2.276h.57V1963c0-1.569-1.15-1.649-1.38-1.649" transform="translate(-1029.195 -13125.752)" fill="#020202"/>
        <path id="Path_2327" data-name="Path 2327" d="M1849.76,1980.39h-.57v.862h-.62v.465h.62v2.221a1.407,1.407,0,0,0,.251.943.858.858,0,0,0,.708.3,1.381,1.381,0,0,0,.554-.1l.092-.04-.239-.414-.05.01a1.52,1.52,0,0,1-.311.028c-.3,0-.435-.2-.435-.657v-2.289h1.049v-.465h-1.049Zm0,0" transform="translate(-1215.156 -13145.528)" fill="#020202"/>
        <path id="Path_2328" data-name="Path 2328" d="M1980.089,1961.692a3.916,3.916,0,0,1,.627-.045c.832,0,1.309.394,1.309,1.079,0,.739-.5,1.163-1.377,1.163a2.344,2.344,0,0,1-.558-.051Zm.642-.552a6.4,6.4,0,0,0-1.129.1l-.083.015v5.288h.569v-2.181a2.9,2.9,0,0,0,.528.035,2.068,2.068,0,0,0,1.591-.607,1.561,1.561,0,0,0,.386-1.1,1.439,1.439,0,0,0-.429-1.084,2.017,2.017,0,0,0-1.434-.465" transform="translate(-1341.357 -13126.977)" fill="#020202"/>
        <path id="Path_2329" data-name="Path 2329" d="M2160.2,2003.17l-.92,2.447c-.073.192-.139.384-.194.547-.058-.178-.122-.36-.184-.524l-.966-2.405-.025-.064h-.608l1.419,3.548a.494.494,0,0,1,.038.122.467.467,0,0,1-.038.123,2.792,2.792,0,0,1-.59.894,1.814,1.814,0,0,1-.609.384l-.1.038.43.445a2.473,2.473,0,0,0,.534-.389,5.593,5.593,0,0,0,1.268-2.283l1.121-2.785.039-.1Zm0,0" transform="translate(-1512.689 -13167.482)" fill="#020202"/>
        <path id="Path_2330" data-name="Path 2330" d="M1759.451,2003.194a2.011,2.011,0,0,1,1.384-.362h.069v.69a.519.519,0,0,1-.033.189,1,1,0,0,1-.992.667.609.609,0,0,1-.635-.665.7.7,0,0,1,.206-.52m2.024.635v-1.44c0-1.013-.475-1.549-1.373-1.549a2.147,2.147,0,0,0-1.135.33l-.059.036.247.427.062-.041a1.51,1.51,0,0,1,.847-.244h.013a.8.8,0,0,1,.585.2,1.048,1.048,0,0,1,.244.775,2.651,2.651,0,0,0-1.888.562,1.2,1.2,0,0,0-.356.888,1.1,1.1,0,0,0,1.181,1.112,1.508,1.508,0,0,0,1.117-.474l.04.39h.547l-.019-.117a5.41,5.41,0,0,1-.052-.857" transform="translate(-1128.507 -13165.237)" fill="#020202"/>
        <path id="Path_2331" data-name="Path 2331" d="M2070.294,2003.523a.533.533,0,0,1-.032.189,1,1,0,0,1-.993.667.61.61,0,0,1-.635-.665.7.7,0,0,1,.207-.52,2.011,2.011,0,0,1,1.383-.362h.071Zm.569.306v-1.44c0-1.014-.475-1.55-1.372-1.55a2.173,2.173,0,0,0-1.092.3l-.057.036.245.423.061-.038a1.544,1.544,0,0,1,.8-.216h.014a.8.8,0,0,1,.585.2,1.048,1.048,0,0,1,.243.775,2.654,2.654,0,0,0-1.888.562,1.205,1.205,0,0,0-.356.889,1.1,1.1,0,0,0,1.181,1.112,1.507,1.507,0,0,0,1.118-.474l.039.39h.548l-.019-.117a5.284,5.284,0,0,1-.053-.857" transform="translate(-1426.676 -13165.237)" fill="#020202"/>
      </g>
    </g>
  </g>
</svg>
